{
  "accessors": [
    {
      "bufferView": 2,
      "componentType": 5126,
      "count": 11480,
      "max": [
        0.0675644800066948,
        0.023825382813811302,
        0.0675644800066948
      ],
      "min": [
        -0.0675644800066948,
        -0.024988358840346336,
        -0.0675644800066948
      ],
      "type": "VEC3"
    },
    {
      "bufferView": 2,
      "byteOffset": 137760,
      "componentType": 5126,
      "count": 11480,
      "max": [
        1.0,
        1.0,
        1.0
      ],
      "min": [
        -1.0,
        -1.0,
        -1.0
      ],
      "type": "VEC3"
    },
    {
      "bufferView": 1,
      "componentType": 5126,
      "count": 11480,
      "max": [
        1.0000001192092896,
        1.0000001192092896
      ],
      "min": [
        0.0,
        0.010000006295740604
      ],
      "type": "VEC2"
    },
    {
      "bufferView": 0,
      "componentType": 5125,
      "count": 66048,
      "type": "SCALAR"
    },
    {
      "bufferView": 2,
      "byteOffset": 275520,
      "componentType": 5126,
      "count": 6321,
      "max": [
        0.0675644800066948,
        0.024981029331684113,
        0.0675644800066948
      ],
      "min": [
        -0.0675644800066948,
        0.009015006013214588,
        -0.0675644800066948
      ],
      "type": "VEC3"
    },
    {
      "bufferView": 2,
      "byteOffset": 351372,
      "componentType": 5126,
      "count": 6321,
      "max": [
        1.0,
        1.0,
        1.0
      ],
      "min": [
        -1.0,
        -1.0,
        -1.0
      ],
      "type": "VEC3"
    },
    {
      "bufferView": 1,
      "byteOffset": 91840,
      "componentType": 5126,
      "count": 6321,
      "max": [
        1.0000001192092896,
        1.0000001192092896
      ],
      "min": [
        0.0,
        0.010000006295740604
      ],
      "type": "VEC2"
    },
    {
      "bufferView": 0,
      "byteOffset": 264192,
      "componentType": 5125,
      "count": 35328,
      "type": "SCALAR"
    },
    {
      "bufferView": 2,
      "byteOffset": 427224,
      "componentType": 5126,
      "count": 645,
      "max": [
        0.0675644800066948,
        0.0076459557749331,
        0.0675644800066948
      ],
      "min": [
        -0.0675644800066948,
        -0.02382378652691841,
        -0.0675644800066948
      ],
      "type": "VEC3"
    },
    {
      "bufferView": 2,
      "byteOffset": 434964,
      "componentType": 5126,
      "count": 645,
      "max": [
        1.0,
        1.6986556374831707e-06,
        1.0
      ],
      "min": [
        -1.0,
        -1.1010993148374837e-06,
        -1.0
      ],
      "type": "VEC3"
    },
    {
      "bufferView": 1,
      "byteOffset": 142408,
      "componentType": 5126,
      "count": 645,
      "max": [
        1.0,
        1.0038063526153564
      ],
      "min": [
        0.0,
        0.0049013495445251465
      ],
      "type": "VEC2"
    },
    {
      "bufferView": 0,
      "byteOffset": 405504,
      "componentType": 5125,
      "count": 3072,
      "type": "SCALAR"
    },
    {
      "bufferView": 2,
      "byteOffset": 442704,
      "componentType": 5126,
      "count": 193,
      "max": [
        0.0675569400191307,
        0.02504289336502552,
        0.0675569400191307
      ],
      "min": [
        -0.0675569400191307,
        0.02463901787996292,
        -0.0675569400191307
      ],
      "type": "VEC3"
    },
    {
      "bufferView": 2,
      "byteOffset": 445020,
      "componentType": 5126,
      "count": 193,
      "max": [
        0.013495263643562794,
        1.0,
        0.013495306484401226
      ],
      "min": [
        -0.013495037332177162,
        0.9999088644981384,
        -0.013495520688593388
      ],
      "type": "VEC3"
    },
    {
      "bufferView": 1,
      "byteOffset": 147568,
      "componentType": 5126,
      "count": 193,
      "max": [
        1.0006706714630127,
        0.9973858594894409
      ],
      "min": [
        -0.00042455183574929833,
        -0.003709533717483282
      ],
      "type": "VEC2"
    },
    {
      "bufferView": 0,
      "byteOffset": 417792,
      "componentType": 5125,
      "count": 768,
      "type": "SCALAR"
    },
    {
      "bufferView": 2,
      "byteOffset": 447336,
      "componentType": 5126,
      "count": 11480,
      "max": [
        0.0675644800066948,
        0.023825382813811302,
        0.0675644800066948
      ],
      "min": [
        -0.0675644800066948,
        -0.024988358840346336,
        -0.0675644800066948
      ],
      "type": "VEC3"
    },
    {
      "bufferView": 2,
      "byteOffset": 585096,
      "componentType": 5126,
      "count": 11480,
      "max": [
        1.0,
        1.0,
        1.0
      ],
      "min": [
        -1.0,
        -1.0,
        -1.0
      ],
      "type": "VEC3"
    },
    {
      "bufferView": 1,
      "byteOffset": 149112,
      "componentType": 5126,
      "count": 11480,
      "max": [
        1.0000001192092896,
        1.0000001192092896
      ],
      "min": [
        0.0,
        0.010000006295740604
      ],
      "type": "VEC2"
    },
    {
      "bufferView": 0,
      "byteOffset": 420864,
      "componentType": 5125,
      "count": 66048,
      "type": "SCALAR"
    },
    {
      "bufferView": 2,
      "byteOffset": 722856,
      "componentType": 5126,
      "count": 6321,
      "max": [
        0.0675644800066948,
        0.024981029331684113,
        0.0675644800066948
      ],
      "min": [
        -0.0675644800066948,
        0.009015006013214588,
        -0.0675644800066948
      ],
      "type": "VEC3"
    },
    {
      "bufferView": 2,
      "byteOffset": 798708,
      "componentType": 5126,
      "count": 6321,
      "max": [
        1.0,
        1.0,
        1.0
      ],
      "min": [
        -1.0,
        -1.0,
        -1.0
      ],
      "type": "VEC3"
    },
    {
      "bufferView": 1,
      "byteOffset": 240952,
      "componentType": 5126,
      "count": 6321,
      "max": [
        1.0000001192092896,
        1.0000001192092896
      ],
      "min": [
        0.0,
        0.010000006295740604
      ],
      "type": "VEC2"
    },
    {
      "bufferView": 0,
      "byteOffset": 685056,
      "componentType": 5125,
      "count": 35328,
      "type": "SCALAR"
    },
    {
      "bufferView": 2,
      "byteOffset": 874560,
      "componentType": 5126,
      "count": 645,
      "max": [
        0.0675644800066948,
        0.0076459557749331,
        0.0675644800066948
      ],
      "min": [
        -0.0675644800066948,
        -0.02382378652691841,
        -0.0675644800066948
      ],
      "type": "VEC3"
    },
    {
      "bufferView": 2,
      "byteOffset": 882300,
      "componentType": 5126,
      "count": 645,
      "max": [
        1.0,
        1.6986556374831707e-06,
        1.0
      ],
      "min": [
        -1.0,
        -1.1010993148374837e-06,
        -1.0
      ],
      "type": "VEC3"
    },
    {
      "bufferView": 1,
      "byteOffset": 291520,
      "componentType": 5126,
      "count": 645,
      "max": [
        1.0,
        1.0038063526153564
      ],
      "min": [
        0.0,
        0.0049013495445251465
      ],
      "type": "VEC2"
    },
    {
      "bufferView": 0,
      "byteOffset": 826368,
      "componentType": 5125,
      "count": 3072,
      "type": "SCALAR"
    },
    {
      "bufferView": 2,
      "byteOffset": 890040,
      "componentType": 5126,
      "count": 193,
      "max": [
        0.0675569400191307,
        0.025042889639735222,
        0.0675569400191307
      ],
      "min": [
        -0.0675569400191307,
        0.024639014154672623,
        -0.0675569400191307
      ],
      "type": "VEC3"
    },
    {
      "bufferView": 2,
      "byteOffset": 892356,
      "componentType": 5126,
      "count": 193,
      "max": [
        0.013495391234755516,
        1.0,
        0.013495306484401226
      ],
      "min": [
        -0.01349538192152977,
        0.9999088644981384,
        -0.01349551510065794
      ],
      "type": "VEC3"
    },
    {
      "bufferView": 1,
      "byteOffset": 296680,
      "componentType": 5126,
      "count": 193,
      "max": [
        1.0006706714630127,
        0.9973858594894409
      ],
      "min": [
        -0.00042455183574929833,
        -0.003709533717483282
      ],
      "type": "VEC2"
    },
    {
      "bufferView": 0,
      "byteOffset": 838656,
      "componentType": 5125,
      "count": 768,
      "type": "SCALAR"
    }
  ],
  "asset": {
    "extras": {
      "author": "Jozsef Hocza (https://sketchfab.com/hocza)",
      "license": "CC-BY-4.0 (http://creativecommons.org/licenses/by/4.0/)",
      "source": "https://sketchfab.com/3d-models/cosmetic-jar-f924e9dfd0eb42409ca63ac635b9e8ff",
      "title": "Cosmetic jar"
    },
    "generator": "Sketchfab-14.32.1",
    "version": "2.0"
  },
  "bufferViews": [
    {
      "buffer": 0,
      "byteLength": 841728,
      "name": "floatBufferViews",
      "target": 34963
    },
    {
      "buffer": 0,
      "byteLength": 298224,
      "byteOffset": 841728,
      "byteStride": 8,
      "name": "floatBufferViews",
      "target": 34962
    },
    {
      "buffer": 0,
      "byteLength": 894672,
      "byteOffset": 1139952,
      "byteStride": 12,
      "name": "floatBufferViews",
      "target": 34962
    }
  ],
  "buffers": [
    {
      "byteLength": 2034624,
      "uri": "scene.bin"
    }
  ],
  "images": [
    {
      "uri": "textures/Material.002_baseColor.png"
    },
    {
      "uri": "textures/Material.001_baseColor.png"
    }
  ],
  "materials": [
    {
      "doubleSided": true,
      "name": "Plastic",
      "pbrMetallicRoughness": {
        "baseColorFactor": [
          0.8,
          0.8,
          0.8,
          1.0
        ],
        "metallicFactor": 0.0863636,
        "roughnessFactor": 0.213636
      }
    },
    {
      "doubleSided": true,
      "name": "Plastic.top",
      "pbrMetallicRoughness": {
        "baseColorFactor": [
          0.8,
          0.8,
          0.8,
          1.0
        ],
        "metallicFactor": 0.0863636
      }
    },
    {
      "doubleSided": true,
      "name": "Material.002",
      "pbrMetallicRoughness": {
        "baseColorTexture": {
          "index": 0
        },
        "metallicFactor": 0.0,
        "roughnessFactor": 0.5
      }
    },
    {
      "doubleSided": true,
      "name": "Material.001",
      "pbrMetallicRoughness": {
        "baseColorTexture": {
          "index": 1
        },
        "metallicFactor": 0.0,
        "roughnessFactor": 0.5
      }
    }
  ],
  "meshes": [
    {
      "name": "Object_0",
      "primitives": [
        {
          "attributes": {
            "NORMAL": 1,
            "POSITION": 0,
            "TEXCOORD_0": 2
          },
          "indices": 3,
          "material": 0,
          "mode": 4
        }
      ]
    },
    {
      "name": "Object_1",
      "primitives": [
        {
          "attributes": {
            "NORMAL": 5,
            "POSITION": 4,
            "TEXCOORD_0": 6
          },
          "indices": 7,
          "material": 1,
          "mode": 4
        }
      ]
    },
    {
      "name": "Object_2",
      "primitives": [
        {
          "attributes": {
            "NORMAL": 9,
            "POSITION": 8,
            "TEXCOORD_0": 10
          },
          "indices": 11,
          "material": 2,
          "mode": 4
        }
      ]
    },
    {
      "name": "Object_3",
      "primitives": [
        {
          "attributes": {
            "NORMAL": 13,
            "POSITION": 12,
            "TEXCOORD_0": 14
          },
          "indices": 15,
          "material": 3,
          "mode": 4
        }
      ]
    },
    {
      "name": "Object_4",
      "primitives": [
        {
          "attributes": {
            "NORMAL": 17,
            "POSITION": 16,
            "TEXCOORD_0": 18
          },
          "indices": 19,
          "material": 0,
          "mode": 4
        }
      ]
    },
    {
      "name": "Object_5",
      "primitives": [
        {
          "attributes": {
            "NORMAL": 21,
            "POSITION": 20,
            "TEXCOORD_0": 22
          },
          "indices": 23,
          "material": 0,
          "mode": 4
        }
      ]
    },
    {
      "name": "Object_6",
      "primitives": [
        {
          "attributes": {
            "NORMAL": 25,
            "POSITION": 24,
            "TEXCOORD_0": 26
          },
          "indices": 27,
          "material": 2,
          "mode": 4
        }
      ]
    },
    {
      "name": "Object_7",
      "primitives": [
        {
          "attributes": {
            "NORMAL": 29,
            "POSITION": 28,
            "TEXCOORD_0": 30
          },
          "indices": 31,
          "material": 3,
          "mode": 4
        }
      ]
    }
  ],
  "nodes": [
    {
      "children": [
        1
      ],
      "matrix": [
        1.0,
        0.0,
        0.0,
        0.0,
        0.0,
        2.220446049250313e-16,
        -1.0,
        0.0,
        0.0,
        1.0,
        2.220446049250313e-16,
        0.0,
        0.0,
        0.0,
        0.0,
        1.0
      ],
      "name": "Sketchfab_model"
    },
    {
      "children": [
        2
      ],
      "name": "root"
    },
    {
      "children": [
        3,
        11
      ],
      "matrix": [
        1.0,
        0.0,
        0.0,
        0.0,
        0.0,
        2.220446049250313e-16,
        1.0,
        0.0,
        0.0,
        -1.0,
        2.220446049250313e-16,
        0.0,
        0.0,
        0.0,
        0.0,
        1.0
      ],
      "name": "GLTF_SceneRootNode"
    },
    {
      "children": [
        4,
        5,
        7,
        9
      ],
      "matrix": [
        0.6364291310310364,
        0.0,
        0.0,
        0.0,
        0.0,
        1.0,
        0.0,
        0.0,
        0.0,
        0.0,
        0.6364291310310364,
        0.0,
        0.0,
        -0.06459542363882065,
        0.0,
        1.0
      ],
      "name": "jar.complete.001_5"
    },
    {
      "mesh": 0,
      "name": "Object_4"
    },
    {
      "children": [
        6
      ],
      "matrix": [
        1.0,
        0.0,
        0.0,
        0.0,
        0.0,
        1.0,
        0.0,
        0.0,
        0.0,
        0.0,
        1.0,
        0.0,
        0.0,
        0.00031501639750786126,
        0.0,
        1.0
      ],
      "name": "Cylinder.003_2"
    },
    {
      "mesh": 1,
      "name": "Object_6"
    },
    {
      "children": [
        8
      ],
      "matrix": [
        1.0026905536651611,
        0.0,
        0.0,
        0.0,
        0.0,
        0.9532966613769531,
        0.0,
        0.0,
        0.0,
        0.0,
        1.0026905536651611,
        0.0,
        0.0,
        0.0,
        0.0,
        1.0
      ],
      "name": "label.side.001_3"
    },
    {
      "mesh": 2,
      "name": "Object_8"
    },
    {
      "children": [
        10
      ],
      "matrix": [
        0.930138885974884,
        0.0,
        0.0,
        0.0,
        0.0,
        1.0,
        0.0,
        0.0,
        0.0,
        0.0,
        0.930138885974884,
        0.0,
        0.0,
        0.0003231557202525437,
        0.0,
        1.0
      ],
      "name": "label.top.001_4"
    },
    {
      "mesh": 3,
      "name": "Object_10"
    },
    {
      "children": [
        12,
        13,
        15,
        17
      ],
      "matrix": [
        0.6364291310310364,
        0.0,
        0.0,
        0.0,
        0.0,
        0.0,
        1.0,
        0.0,
        0.0,
        -0.6364291310310364,
        0.0,
        0.0,
        -0.0881030336022377,
        -0.04633689671754837,
        0.0,
        1.0
      ],
      "name": "jar.complete.002_9"
    },
    {
      "mesh": 4,
      "name": "Object_12"
    },
    {
      "children": [
        14
      ],
      "matrix": [
        1.0,
        0.0,
        0.0,
        0.0,
        0.0,
        1.0,
        0.0,
        0.0,
        0.0,
        0.0,
        1.0,
        0.0,
        0.0,
        -0.00019246537704020739,
        0.0,
        1.0
      ],
      "name": "Cylinder.004_6"
    },
    {
      "mesh": 5,
      "name": "Object_14"
    },
    {
      "children": [
        16
      ],
      "matrix": [
        1.0026905536651611,
        0.0,
        0.0,
        0.0,
        0.0,
        0.9532966613769531,
        0.0,
        0.0,
        0.0,
        0.0,
        1.0026905536651611,
        0.0,
        0.0,
        0.0,
        0.0,
        1.0
      ],
      "name": "label.side.002_7"
    },
    {
      "mesh": 6,
      "name": "Object_16"
    },
    {
      "children": [
        18
      ],
      "matrix": [
        0.930138885974884,
        0.0,
        0.0,
        0.0,
        0.0,
        1.0,
        0.0,
        0.0,
        0.0,
        0.0,
        0.930138885974884,
        0.0,
        0.0,
        -0.00018432606884744018,
        0.0,
        1.0
      ],
      "name": "label.top.002_8"
    },
    {
      "mesh": 7,
      "name": "Object_18"
    }
  ],
  "samplers": [
    {
      "magFilter": 9729,
      "minFilter": 9987,
      "wrapS": 10497,
      "wrapT": 10497
    }
  ],
  "scene": 0,
  "scenes": [
    {
      "name": "Sketchfab_Scene",
      "nodes": [
        0
      ]
    }
  ],
  "textures": [
    {
      "sampler": 0,
      "source": 0
    },
    {
      "sampler": 0,
      "source": 1
    }
  ]
}
